<svg xmlns="http://www.w3.org/2000/svg" viewBox="0 1 17 14"><path d="M9 4V1H8v3c-3.6.1-8 1.3-8 2.5v7c0 .8.7 1.5 1.5 1.5h1.8l2-3.9c.6.1 1.7.3 3.2.3 1.5 0 2.7-.2 3.3-.3l1.9 3.9h1.8c.8 0 1.5-.7 1.5-1.5v-7c0-1.2-4.4-2.4-8-2.5zm7 9.5c0 .3-.2.5-.5.5h-1.2l-2-4.1-.4.1s-1.5.3-3.5.3c-1.9 0-3.3-.3-3.3-.3l-.4-.1-2 4.1H1.5c-.3 0-.5-.2-.5-.5V6.6c.5-.4 3.4-1.5 7-1.6h1c3.6.1 6.5 1.2 7 1.6v6.9zM5 7h1v1H5v1H4V8H3V7h1V6h1v1zm7.5 2c.8 0 1.5-.7 1.5-1.5S13.3 6 12.5 6 11 6.7 11 7.5 11.7 9 12.5 9zm0-2c.3 0 .5.2.5.5s-.2.5-.5.5-.5-.2-.5-.5.2-.5.5-.5z" fill="#fff"/></svg>