<svg xmlns="http://www.w3.org/2000/svg" viewBox="0 0 17 17"><path d="M17 1h-2.3V0H2.3v1H0v.5c0 1.1.1 2.2.2 3.3.4 2.9 1.3 6.3 2.8 7.1.2.1.4.1.6.1.2 0 .5-.1.7-.2l.2-.1c.8 1.3 2 2.1 3.5 2.3v2H5v1h7v-1H9v-2c1.4-.1 2.6-.9 3.5-2.3l.2.2c.2.1.4.2.7.2.2 0 .4 0 .6-.1 1.5-.7 2.4-4.2 2.8-7.1.1-1.2.2-2.3.2-3.4V1zM4 10.8l-.2.2c-.1.1-.2.1-.3 0-.8-.4-1.8-2.7-2.2-6.3C1.1 3.8 1 2.9 1 2h1.3c.1 2.9.5 6.5 1.8 9l-.1-.2zM8.5 13C4 13 3.3 5 3.3 1h10.5c-.1 4.7-.9 12-5.3 12zm7.3-8.3c-.4 3.6-1.5 5.9-2.2 6.3-.1.1-.2.1-.3 0l-.3-.2-.1.2c1.1-2 1.7-5.1 1.8-9H16c0 .9-.1 1.8-.2 2.7z" fill="#fff"/></svg>